<svg t="1736084167626" class="icon" viewBox="0 0 1024 1024" version="1.1" xmlns="http://www.w3.org/2000/svg" p-id="9828" xmlns:xlink="http://www.w3.org/1999/xlink" width="32" height="32"><path d="M804.864 569.344V371.712c0-61.952-43.52-122.368-43.52-122.368-31.744 16.896-48.64 60.416-43.52 68.608 3.584 10.24 15.36 28.672 15.36 56.832 0 28.672-19.968 40.448-35.328 58.88-15.36 18.432-70.656 22.016-70.656 22.016s0 33.28 3.584 41.984c3.584 8.192 85.504 48.64 89.088 60.416-137.216 20.992-196.096 247.808-207.36 297.472-11.264-49.664-70.144-276.48-207.36-297.472 3.584-11.776 85.504-51.712 89.088-60.416 3.072-8.192 3.072-41.984 3.072-41.984s-55.296-3.584-70.656-22.016c-14.848-18.432-35.328-30.208-35.328-58.88s11.776-47.104 15.36-56.832c5.12-8.192-11.776-52.224-43.52-68.608 0 0-43.52 60.416-43.52 122.368v197.632s-8.192 156.16-65.536 214.528c22.016-11.776 47.104-45.056 100.864-75.264 6.656 15.36 60.416 87.04 65.536 115.712 16.896-19.968 56.832-80.384 72.192-68.608 15.872 11.264 92.16 118.784 118.784 177.152 0.512 1.536 1.024 2.56 2.048 4.096 0.512-1.536 1.024-2.56 1.536-4.096 26.624-58.368 102.912-165.888 118.784-177.152 14.848-11.776 55.296 48.64 72.192 68.608 5.12-28.672 58.88-100.352 65.536-115.712 53.76 30.208 78.848 63.488 100.864 75.264-58.88-58.88-67.584-214.528-67.584-214.528z" p-id="9829" fill="currentColor"></path><path d="M654.336 408.064c14.848-8.192 31.744-30.208 35.328-40.448 3.584-10.24 0-22.016 0-30.208-3.584-13.312-16.896-5.12-16.896-5.12 0 1.536-1.536 1.536 0 0-47.104 33.28-55.296 47.104-87.04 58.88 6.656 10.24 10.24 14.848 11.776 14.848s41.472 10.752 56.832 2.048zM512 713.728c0 1.024 0.512 1.536 0.512 1.536v-3.072c4.608-19.456 34.304-137.216 103.424-166.4-5.12-18.432-41.984-13.312-47.104-40.448-5.12-26.624 6.656-67.072 1.536-77.312s-13.312-56.832-58.368-50.176c-45.056-6.656-53.248 43.52-58.368 50.176-5.12 10.24 6.656 50.176 1.536 77.312-5.12 26.624-41.984 22.016-47.104 40.448 69.12 29.184 98.816 146.944 103.424 166.4v3.072s0.512-0.512 0.512-1.536zM453.632 357.888h22.016s13.312-24.576 36.352-18.432h1.024c23.04-6.144 36.352 18.432 36.352 18.432h22.016c214.528-147.456 224.768-226.304 224.768-226.304-38.4 36.864-52.224 41.984-61.952 47.104-10.24 5.12-11.776 0-23.552-3.584-68.096-95.232-188.928-88.064-197.632-87.04-5.632-0.512-129.024-9.216-197.632 87.04-11.776 3.584-13.312 8.192-23.552 3.584-10.24-5.12-23.552-10.24-61.952-47.104-1.024 0 9.216 78.848 223.744 226.304zM438.784 391.68c-31.744-11.776-40.448-25.088-87.04-58.88 1.536 1.536 0 1.536 0 0 0 0-13.312-8.192-16.896 5.12 0 8.192-3.584 19.968 0 30.208 3.584 10.24 19.968 31.744 35.328 40.448 14.848 8.192 55.296-1.536 56.832-1.536s4.608-5.632 11.776-15.36z" p-id="9830" fill="currentColor"></path></svg>