<svg t="1736083460787" class="icon" viewBox="0 0 1024 1024" version="1.1" xmlns="http://www.w3.org/2000/svg" p-id="8402"><path d="M443.733333 533.333333c42.666667 25.6 64 38.4 89.6 38.4 25.6 0 46.933333-12.8 89.6-38.4L896 375.466667c12.8-8.533333 21.333333-21.333333 21.333333-34.133334s-8.533333-29.866667-21.333333-38.4l-277.333333-157.866666c-42.666667-25.6-64-38.4-89.6-38.4-25.6 0-46.933333 12.8-89.6 38.4L204.8 281.6s-4.266667 0-4.266667 4.266667c-81.066667 46.933333-132.266667 136.533333-132.266666 230.4v8.533333c0 93.866667 51.2 179.2 132.266666 230.4l4.266667 4.266667 149.333333 85.333333c85.333333 51.2 132.266667 76.8 179.2 76.8s89.6-25.6 179.2-76.8l157.866667-89.6c42.666667-25.6 64-38.4 76.8-59.733333 12.8-21.333333 12.8-46.933333 12.8-98.133334v-98.133333c0-12.8-8.533333-25.6-21.333333-34.133333s-25.6-8.533333-38.4 0l-324.266667 187.733333c-21.333333 12.8-34.133333 17.066667-42.666667 17.066667-12.8 0-21.333333-4.266667-42.666666-17.066667l-217.6-128c-17.066667-8.533333-21.333333-8.533333-25.6-12.8-8.533333 0-21.333333 4.266667-25.6 12.8v38.4c0 8.533333 8.533333 17.066667 12.8 25.6 4.266667 8.533333 8.533333 8.533333 17.066666 17.066667l234.666667 136.533333c21.333333 12.8 34.133333 17.066667 42.666667 17.066667 12.8 0 21.333333-4.266667 42.666666-17.066667l285.866667-166.4c8.533333-4.266667 12.8-8.533333 12.8-4.266667 4.266667 0 4.266667 4.266667 4.266667 12.8v42.666667c0 12.8 0 17.066667-4.266667 25.6-4.266667 4.266667-8.533333 8.533333-21.333333 12.8l-234.666667 136.533333c-42.666667 25.6-64 38.4-89.6 38.4-25.6 0-46.933333-12.8-89.6-38.4l-221.866667-128c-42.666667-25.6-68.266667-76.8-68.266666-132.266666v-42.666667c0-29.866667 17.066667-55.466667 42.666666-72.533333 21.333333-12.8 51.2-12.8 72.533334 0l183.466666 106.666666z" p-id="8403" fill="currentColor"></path></svg>