<svg width="17" height="14" viewBox="0 0 17 14" fill="none" xmlns="http://www.w3.org/2000/svg">
<path d="M12.75 14V0.482759H13.2222V14H12.75ZM12.2778 14V3.37931H11.3333V3.86207H10.3889V4.34483H9.91667V4.82759H9.44444V5.31034H8.5V5.7931H7.55556V6.27586H6.61111V6.75862H6.13889V7.24138H5.19444V7.72414H4.72222V8.2069H3.77778V7.72414H2.83333V7.24138H1.41667V6.75862H0V6.27586H0.472222V5.7931H1.41667V5.31034H2.83333V4.82759H3.77778V4.34483H4.72222V3.86207H6.13889V3.37931H7.55556V2.89655H8.5V2.41379H9.44444V1.93103H10.3889V1.44828H11.3333V0.965517H12.75V14H12.2778ZM13.2222 13.5172V0.482759H13.6944V13.5172H13.2222ZM11.8056 13.5172V3.86207H12.2778V13.5172H11.8056ZM13.6944 13.0345V0.482759H14.1667V13.0345H13.6944ZM11.3333 13.0345V4.34483H11.8056V13.0345H11.3333ZM6.13889 13.0345V9.17241H6.61111V13.0345H6.13889ZM10.8611 12.5517V4.82759H11.3333V12.5517H10.8611ZM6.61111 12.5517V8.68966H7.08333V12.5517H6.61111ZM10.3889 12.069V5.31034H10.8611V12.069H10.3889ZM7.08333 12.069V8.2069H7.55556V12.069H7.08333ZM14.1667 11.5862V0.482759H14.6389V11.5862H14.1667ZM9.91667 11.5862V5.7931H10.3889V11.5862H9.91667ZM7.55556 11.5862V7.72414H8.02778V11.5862H7.55556ZM9.44444 11.1034V6.27586H9.91667V11.1034H9.44444ZM8.02778 11.1034V7.24138H8.5V11.1034H8.02778ZM8.97222 10.6207V6.27586H9.44444V10.6207H8.97222ZM8.5 10.6207V6.75862H8.97222V10.6207H8.5ZM14.6389 9.65517V0H15.1111V9.65517H14.6389ZM15.1111 8.2069V0H15.5833V8.2069H15.1111ZM15.5833 6.75862V0H16.0556V6.75862H15.5833ZM16.0556 4.82759V0H16.5278V4.82759H16.0556ZM16.5278 2.41379V0H17V2.41379H16.5278Z" fill="currentColor" fill-opacity="0.9"/>
</svg>
